<svg id="ad94a318-fdfb-45a5-9490-4bb7b0f90139" data-name="Layer 1" xmlns="http://www.w3.org/2000/svg" width="1079.94368" height="779.70903" viewBox="0 0 1079.94368 779.70903"><title>begin chat</title><g opacity="0.3"><path d="M902.58471,710.05937a20.81252,20.81252,0,1,0,8.3387-39.13277l-.98562,10.67947-3.7314-9.80018a20.73405,20.73405,0,0,0-12.22123,10.10949,20.4084,20.4084,0,0,0-1.97438,5.40651A20.80854,20.80854,0,0,0,902.58471,710.05937Z" transform="translate(-60.02816 -59.9088)" fill="#57b894"/><path d="M910.00074,836.5912c-.49451-9.27109,8.31332-16.18134,16.63109-20.306s17.89981-7.97772,21.73547-16.43263c5.51252-12.15118-3.91862-25.32906-11.121-36.56135a125.3002,125.3002,0,0,1-12.91856-26.63091c-1.29809-3.75147-2.42859-7.64108-2.34816-11.61.11584-5.71565,2.71274-11.052,5.29035-16.15471q12.88016-25.49811,26.95418-50.36938" transform="translate(-60.02816 -59.9088)" fill="none" stroke="#3f3d56" stroke-miterlimit="10"/><path d="M903.81992,707.44879a20.81252,20.81252,0,1,0,8.33869-39.13278l-.98561,10.67948-3.7314-9.80018a20.734,20.734,0,0,0-12.22123,10.10949,20.40859,20.40859,0,0,0-1.97439,5.4065A20.80855,20.80855,0,0,0,903.81992,707.44879Z" transform="translate(-60.02816 -59.9088)" fill="none" stroke="#3f3d56" stroke-miterlimit="10"/><path d="M933.58025,651.86777A20.78824,20.78824,0,0,1,950.26208,640.9l.26936,10.32343,4.64475-10.1448a20.81,20.81,0,1,1-21.59594,10.78916Z" transform="translate(-60.02816 -59.9088)" fill="#57b894"/><path d="M935.2272,648.387A20.7882,20.7882,0,0,1,951.909,637.4192l.26936,10.32344,4.64475-10.14481A20.81,20.81,0,1,1,935.2272,648.387Z" transform="translate(-60.02816 -59.9088)" fill="none" stroke="#3f3d56" stroke-miterlimit="10"/><path d="M933.6,762.98355a20.81,20.81,0,0,0,23.42627-34.07564l-3.56911,7.796-.2698-10.44473a.36282.36282,0,0,0-.04963-.02732A20.81113,20.81113,0,1,0,933.6,762.98355Z" transform="translate(-60.02816 -59.9088)" fill="#57b894"/><path d="M935.1025,759.43443a20.81,20.81,0,0,0,23.42627-34.07565l-3.56912,7.796L954.68986,722.71a.36409.36409,0,0,0-.04964-.02732,20.81113,20.81113,0,1,0-19.53772,36.75173Z" transform="translate(-60.02816 -59.9088)" fill="none" stroke="#3f3d56" stroke-miterlimit="10"/><path d="M907.30272,794.16821a20.80131,20.80131,0,1,0,6.25521-15.57438l7.225,15.11843-11.50663-9.11037A20.61639,20.61639,0,0,0,907.30272,794.16821Z" transform="translate(-60.02816 -59.9088)" fill="#57b894"/><path d="M908.53792,791.55763a20.80131,20.80131,0,1,0,6.25521-15.57438l7.225,15.11842-11.50663-9.11037A20.61655,20.61655,0,0,0,908.53792,791.55763Z" transform="translate(-60.02816 -59.9088)" fill="none" stroke="#3f3d56" stroke-miterlimit="10"/></g><g opacity="0.3"><path d="M352.359,713.05937a20.81252,20.81252,0,1,1-8.3387-39.13277l.98562,10.67947,3.7314-9.80018a20.73405,20.73405,0,0,1,12.22123,10.10949,20.40878,20.40878,0,0,1,1.97439,5.40651A20.80855,20.80855,0,0,1,352.359,713.05937Z" transform="translate(-60.02816 -59.9088)" fill="#ff6584"/><path d="M344.94294,839.5912c.49451-9.27109-8.31332-16.18134-16.63109-20.306s-17.89981-7.97772-21.73547-16.43263c-5.51252-12.15118,3.91862-25.32906,11.121-36.56135A125.3002,125.3002,0,0,0,330.616,739.66034c1.29809-3.75147,2.42859-7.64108,2.34816-11.61-.11584-5.71565-2.71274-11.052-5.29035-16.15471q-12.88016-25.49811-26.95418-50.36938" transform="translate(-60.02816 -59.9088)" fill="none" stroke="#3f3d56" stroke-miterlimit="10"/><path d="M351.12376,710.44879a20.81252,20.81252,0,1,1-8.33869-39.13278l.98561,10.67948,3.7314-9.80018a20.734,20.734,0,0,1,12.22124,10.10949,20.40891,20.40891,0,0,1,1.97438,5.4065A20.80855,20.80855,0,0,1,351.12376,710.44879Z" transform="translate(-60.02816 -59.9088)" fill="none" stroke="#3f3d56" stroke-miterlimit="10"/><path d="M321.36343,654.86777A20.78824,20.78824,0,0,0,304.6816,643.9l-.26935,10.32343-4.64476-10.1448a20.81,20.81,0,1,0,21.59594,10.78916Z" transform="translate(-60.02816 -59.9088)" fill="#ff6584"/><path d="M319.71649,651.387a20.78823,20.78823,0,0,0-16.68183-10.9678l-.26936,10.32344-4.64475-10.14481A20.81,20.81,0,1,0,319.71649,651.387Z" transform="translate(-60.02816 -59.9088)" fill="none" stroke="#3f3d56" stroke-miterlimit="10"/><path d="M321.34367,765.98355a20.81,20.81,0,0,1-23.42627-34.07564l3.56911,7.796.2698-10.44473a.36282.36282,0,0,1,.04963-.02732,20.81113,20.81113,0,1,1,19.53773,36.75172Z" transform="translate(-60.02816 -59.9088)" fill="#ff6584"/><path d="M319.84118,762.43443a20.81,20.81,0,0,1-23.42627-34.07565l3.56912,7.796.26979-10.44474a.36409.36409,0,0,1,.04964-.02732,20.81113,20.81113,0,1,1,19.53772,36.75173Z" transform="translate(-60.02816 -59.9088)" fill="none" stroke="#3f3d56" stroke-miterlimit="10"/><path d="M347.641,797.16821a20.80131,20.80131,0,1,1-6.25521-15.57438l-7.225,15.11843,11.50663-9.11037A20.61639,20.61639,0,0,1,347.641,797.16821Z" transform="translate(-60.02816 -59.9088)" fill="#ff6584"/><path d="M346.40576,794.55763a20.80131,20.80131,0,1,1-6.25521-15.57438l-7.225,15.11842,11.50663-9.11037A20.61655,20.61655,0,0,1,346.40576,794.55763Z" transform="translate(-60.02816 -59.9088)" fill="none" stroke="#3f3d56" stroke-miterlimit="10"/></g><g opacity="0.3"><path d="M872.359,712.05937a20.81252,20.81252,0,1,1-8.3387-39.13277l.98562,10.67947,3.7314-9.80018a20.73405,20.73405,0,0,1,12.22123,10.10949,20.40878,20.40878,0,0,1,1.97439,5.40651A20.80855,20.80855,0,0,1,872.359,712.05937Z" transform="translate(-60.02816 -59.9088)" fill="#ff6584"/><path d="M864.94294,838.5912c.49451-9.27109-8.31332-16.18134-16.63109-20.306s-17.89981-7.97772-21.73547-16.43263c-5.51252-12.15118,3.91862-25.32906,11.121-36.56135A125.3002,125.3002,0,0,0,850.616,738.66034c1.29809-3.75147,2.42859-7.64108,2.34816-11.61-.11584-5.71565-2.71274-11.052-5.29035-16.15471q-12.88015-25.49811-26.95418-50.36938" transform="translate(-60.02816 -59.9088)" fill="none" stroke="#3f3d56" stroke-miterlimit="10"/><path d="M871.12376,709.44879a20.81252,20.81252,0,1,1-8.33869-39.13278l.98561,10.67948,3.7314-9.80018a20.734,20.734,0,0,1,12.22124,10.10949,20.40891,20.40891,0,0,1,1.97438,5.4065A20.80855,20.80855,0,0,1,871.12376,709.44879Z" transform="translate(-60.02816 -59.9088)" fill="none" stroke="#3f3d56" stroke-miterlimit="10"/><path d="M841.36343,653.86777A20.78824,20.78824,0,0,0,824.6816,642.9l-.26935,10.32343-4.64476-10.1448a20.81,20.81,0,1,0,21.59594,10.78916Z" transform="translate(-60.02816 -59.9088)" fill="#ff6584"/><path d="M839.71649,650.387a20.78823,20.78823,0,0,0-16.68183-10.9678l-.26936,10.32344-4.64475-10.14481A20.81,20.81,0,1,0,839.71649,650.387Z" transform="translate(-60.02816 -59.9088)" fill="none" stroke="#3f3d56" stroke-miterlimit="10"/><path d="M841.34367,764.98355a20.81,20.81,0,0,1-23.42627-34.07564l3.56911,7.796.2698-10.44473a.36282.36282,0,0,1,.04963-.02732,20.81113,20.81113,0,1,1,19.53773,36.75172Z" transform="translate(-60.02816 -59.9088)" fill="#ff6584"/><path d="M839.84118,761.43443a20.81,20.81,0,0,1-23.42627-34.07565l3.56912,7.796.26979-10.44474a.36409.36409,0,0,1,.04964-.02732,20.81113,20.81113,0,1,1,19.53772,36.75173Z" transform="translate(-60.02816 -59.9088)" fill="none" stroke="#3f3d56" stroke-miterlimit="10"/><path d="M867.641,796.16821a20.80131,20.80131,0,1,1-6.25521-15.57438l-7.225,15.11843,11.50663-9.11037A20.61639,20.61639,0,0,1,867.641,796.16821Z" transform="translate(-60.02816 -59.9088)" fill="#ff6584"/><path d="M866.40576,793.55763a20.80131,20.80131,0,1,1-6.25521-15.57438l-7.225,15.11842,11.50663-9.11037A20.61655,20.61655,0,0,1,866.40576,793.55763Z" transform="translate(-60.02816 -59.9088)" fill="none" stroke="#3f3d56" stroke-miterlimit="10"/></g><g opacity="0.3"><path d="M132.359,711.05937a20.81252,20.81252,0,1,1-8.3387-39.13277l.98562,10.67947,3.7314-9.80018a20.73405,20.73405,0,0,1,12.22123,10.10949,20.40878,20.40878,0,0,1,1.97439,5.40651A20.80855,20.80855,0,0,1,132.359,711.05937Z" transform="translate(-60.02816 -59.9088)" fill="#ff6584"/><path d="M124.94294,837.5912c.49451-9.27109-8.31332-16.18134-16.63109-20.306S90.412,809.30751,86.57638,800.8526c-5.51252-12.15118,3.91862-25.32906,11.121-36.56135A125.3002,125.3002,0,0,0,110.616,737.66034c1.29809-3.75147,2.42859-7.64108,2.34816-11.61-.11584-5.71565-2.71274-11.052-5.29035-16.15471Q94.79363,684.39755,80.7196,659.52628" transform="translate(-60.02816 -59.9088)" fill="none" stroke="#3f3d56" stroke-miterlimit="10"/><path d="M131.12376,708.44879a20.81252,20.81252,0,1,1-8.33869-39.13278l.98561,10.67948,3.7314-9.80018a20.734,20.734,0,0,1,12.22124,10.10949,20.40891,20.40891,0,0,1,1.97438,5.4065A20.80855,20.80855,0,0,1,131.12376,708.44879Z" transform="translate(-60.02816 -59.9088)" fill="none" stroke="#3f3d56" stroke-miterlimit="10"/><path d="M101.36343,652.86777A20.78824,20.78824,0,0,0,84.6816,641.9l-.26935,10.32343-4.64476-10.1448a20.81,20.81,0,1,0,21.59594,10.78916Z" transform="translate(-60.02816 -59.9088)" fill="#ff6584"/><path d="M99.71649,649.387a20.78823,20.78823,0,0,0-16.68183-10.9678l-.26936,10.32344-4.64475-10.14481A20.81,20.81,0,1,0,99.71649,649.387Z" transform="translate(-60.02816 -59.9088)" fill="none" stroke="#3f3d56" stroke-miterlimit="10"/><path d="M101.34367,763.98355A20.81,20.81,0,0,1,77.9174,729.90791l3.56911,7.796.2698-10.44473a.36282.36282,0,0,1,.04963-.02732,20.81113,20.81113,0,1,1,19.53773,36.75172Z" transform="translate(-60.02816 -59.9088)" fill="#ff6584"/><path d="M99.84118,760.43443a20.81,20.81,0,0,1-23.42627-34.07565l3.56912,7.796L80.25382,723.71a.36409.36409,0,0,1,.04964-.02732,20.81113,20.81113,0,1,1,19.53772,36.75173Z" transform="translate(-60.02816 -59.9088)" fill="none" stroke="#3f3d56" stroke-miterlimit="10"/><path d="M127.641,795.16821a20.80131,20.80131,0,1,1-6.25521-15.57438l-7.225,15.11843,11.50663-9.11037A20.61639,20.61639,0,0,1,127.641,795.16821Z" transform="translate(-60.02816 -59.9088)" fill="#ff6584"/><path d="M126.40576,792.55763a20.80131,20.80131,0,1,1-6.25521-15.57438l-7.225,15.11842,11.50663-9.11037A20.61655,20.61655,0,0,1,126.40576,792.55763Z" transform="translate(-60.02816 -59.9088)" fill="none" stroke="#3f3d56" stroke-miterlimit="10"/></g><g opacity="0.3"><path d="M126.76815,618.71937a35.75043,35.75043,0,1,0,14.32368-67.2198l-1.693,18.34453L132.98924,553.01a35.61557,35.61557,0,0,0-20.99286,17.36543,35.05685,35.05685,0,0,0-3.39147,9.287A35.74361,35.74361,0,0,0,126.76815,618.71937Z" transform="translate(-60.02816 -59.9088)" fill="#57b894"/><path d="M139.50694,836.0677c-.84945-15.92529,14.28009-27.79528,28.56782-34.8803s30.74716-13.70362,37.33581-28.22692c9.46906-20.87254-6.73116-43.50865-19.103-62.80278a215.23227,215.23227,0,0,1-22.19068-45.74488c-2.22978-6.444-4.17168-13.12536-4.03352-19.94287.199-9.818,4.65977-18.98436,9.08742-27.74952q22.12471-43.799,46.30019-86.52133" transform="translate(-60.02816 -59.9088)" fill="none" stroke="#3f3d56" stroke-miterlimit="10"/><path d="M128.8899,614.23507a35.75043,35.75043,0,1,0,14.32369-67.21979l-1.693,18.34452L135.111,548.52568a35.61559,35.61559,0,0,0-20.99286,17.36544,35.05651,35.05651,0,0,0-3.39147,9.287A35.74359,35.74359,0,0,0,128.8899,614.23507Z" transform="translate(-60.02816 -59.9088)" fill="none" stroke="#3f3d56" stroke-miterlimit="10"/><path d="M180.01032,518.76154a35.70865,35.70865,0,0,1,28.655-18.83978l.46268,17.73294,7.97847-17.4261a35.746,35.746,0,1,1-37.09613,18.53294Z" transform="translate(-60.02816 -59.9088)" fill="#57b894"/><path d="M182.83933,512.78248a35.70867,35.70867,0,0,1,28.655-18.83978l.46268,17.73294,7.97847-17.4261a35.746,35.746,0,1,1-37.09613,18.53294Z" transform="translate(-60.02816 -59.9088)" fill="none" stroke="#3f3d56" stroke-miterlimit="10"/><path d="M180.04426,709.62916a35.74611,35.74611,0,0,0,40.24015-58.533l-6.13079,13.39143-.46344-17.9413a.62351.62351,0,0,0-.08526-.04693,35.748,35.748,0,1,0-33.56066,63.12977Z" transform="translate(-60.02816 -59.9088)" fill="#57b894"/><path d="M182.62514,703.5327a35.74611,35.74611,0,0,0,40.24015-58.533l-6.1308,13.39142-.46344-17.94129a.62243.62243,0,0,0-.08526-.04693,35.748,35.748,0,1,0-33.56065,63.12977Z" transform="translate(-60.02816 -59.9088)" fill="none" stroke="#3f3d56" stroke-miterlimit="10"/><path d="M134.87244,763.19619a35.73117,35.73117,0,1,0,10.7448-26.75268L158.0279,762.413l-19.76535-15.64921A35.41352,35.41352,0,0,0,134.87244,763.19619Z" transform="translate(-60.02816 -59.9088)" fill="#57b894"/><path d="M136.9942,758.7119a35.73116,35.73116,0,1,0,10.7448-26.75269l12.41066,25.96947L140.3843,742.27947A35.41353,35.41353,0,0,0,136.9942,758.7119Z" transform="translate(-60.02816 -59.9088)" fill="none" stroke="#3f3d56" stroke-miterlimit="10"/></g><g opacity="0.3"><path d="M982.69177,838.18123c-1.09964-20.61569,18.48592-35.98168,36.98174-45.1534s39.803-17.73968,48.33212-36.54044c12.25792-27.02-8.71366-56.323-24.72931-81.29973A278.6237,278.6237,0,0,1,1014.55,615.9698c-2.8865-8.34195-5.40034-16.9911-5.22149-25.81653.25758-12.7096,6.03219-24.57572,11.76389-35.92244q28.641-56.69892,59.93672-112.004" transform="translate(-60.02816 -59.9088)" fill="none" stroke="#3f3d56" stroke-miterlimit="10"/><path d="M1105.10722,400.18977l-20.13538,5.75293,1.39819-9.32147c-1.7727-.11408-3.57177-.17853-5.39819-.17853-26.23352,0-47.5,12.08832-47.5,27s21.26648,27,47.5,27,47.5-12.08832,47.5-27C1128.47184,413.54091,1119.089,404.889,1105.10722,400.18977Z" transform="translate(-60.02816 -59.9088)" fill="#ff6584"/><path d="M1105.10722,397.18977l-20.13538,5.75293,1.39819-9.32147c-1.7727-.11408-3.57177-.17853-5.39819-.17853-26.23352,0-47.5,12.08832-47.5,27s21.26648,27,47.5,27,47.5-12.08832,47.5-27C1128.47184,410.54091,1119.089,401.889,1105.10722,397.18977Z" transform="translate(-60.02816 -59.9088)" fill="none" stroke="#3f3d56" stroke-miterlimit="10"/><path d="M1046.10722,743.18977l-20.13538,5.75293,1.39819-9.32147c-1.7727-.11408-3.57177-.17853-5.39819-.17853-26.23352,0-47.5,12.08832-47.5,27s21.26648,27,47.5,27,47.5-12.08832,47.5-27C1069.47184,756.54091,1060.089,747.889,1046.10722,743.18977Z" transform="translate(-60.02816 -59.9088)" fill="#ff6584"/><path d="M1046.10722,740.18977l-20.13538,5.75293,1.39819-9.32147c-1.7727-.11408-3.57177-.17853-5.39819-.17853-26.23352,0-47.5,12.08832-47.5,27s21.26648,27,47.5,27,47.5-12.08832,47.5-27C1069.47184,753.54091,1060.089,744.889,1046.10722,740.18977Z" transform="translate(-60.02816 -59.9088)" fill="none" stroke="#3f3d56" stroke-miterlimit="10"/><path d="M1116.10722,671.18977l-20.13538,5.75293,1.39819-9.32147c-1.7727-.11408-3.57177-.17853-5.39819-.17853-26.23352,0-47.5,12.08832-47.5,27s21.26648,27,47.5,27,47.5-12.08832,47.5-27C1139.47184,684.54091,1130.089,675.889,1116.10722,671.18977Z" transform="translate(-60.02816 -59.9088)" fill="#ff6584"/><path d="M1116.10722,668.18977l-20.13538,5.75293,1.39819-9.32147c-1.7727-.11408-3.57177-.17853-5.39819-.17853-26.23352,0-47.5,12.08832-47.5,27s21.26648,27,47.5,27,47.5-12.08832,47.5-27C1139.47184,681.54091,1130.089,672.889,1116.10722,668.18977Z" transform="translate(-60.02816 -59.9088)" fill="none" stroke="#3f3d56" stroke-miterlimit="10"/><path d="M1033.33668,487.46017l-20.55989-3.97753,5.46353-7.68079c-1.52937-.90362-3.1047-1.77491-4.73357-2.60109-23.39613-11.86672-47.83058-10.70574-54.57587,2.59311s6.75288,33.69958,30.149,45.56629,47.83059,10.70574,54.57588-2.5931C1048.13483,509.93623,1043.68054,497.97579,1033.33668,487.46017Z" transform="translate(-60.02816 -59.9088)" fill="#ff6584"/><path d="M1034.69373,484.78465l-20.55989-3.97753,5.46353-7.6808c-1.52937-.90361-3.1047-1.77491-4.73357-2.60108-23.39613-11.86672-47.83059-10.70574-54.57587,2.5931s6.75288,33.69958,30.149,45.5663,47.83058,10.70574,54.57587-2.59311C1049.49187,507.26071,1045.03759,495.30027,1034.69373,484.78465Z" transform="translate(-60.02816 -59.9088)" fill="none" stroke="#3f3d56" stroke-miterlimit="10"/><path d="M1078.33668,592.46017l-20.55989-3.97753,5.46353-7.68079c-1.52937-.90362-3.1047-1.77491-4.73357-2.60109-23.39613-11.86672-47.83058-10.70574-54.57587,2.59311s6.75288,33.69958,30.149,45.56629,47.83059,10.70574,54.57588-2.5931C1093.13483,614.93623,1088.68054,602.97579,1078.33668,592.46017Z" transform="translate(-60.02816 -59.9088)" fill="#ff6584"/><path d="M1079.69373,589.78465l-20.55989-3.97753,5.46353-7.6808c-1.52937-.90361-3.1047-1.77491-4.73357-2.60108-23.39613-11.86672-47.83059-10.70574-54.57587,2.5931s6.75288,33.69958,30.149,45.5663,47.83058,10.70574,54.57587-2.59311C1094.49187,612.26071,1090.03759,600.30027,1079.69373,589.78465Z" transform="translate(-60.02816 -59.9088)" fill="none" stroke="#3f3d56" stroke-miterlimit="10"/></g><line x1="8.94368" y1="778.0339" x2="1060.94368" y2="778.0339" fill="none" stroke="#3f3d56" stroke-miterlimit="10"/><path d="M568.96,213.49573s28.40984,6.32319,52.27768.17811c0,0,2.92086,0,.92546,3.377a5.37878,5.37878,0,0,1-2.18872,2.04678c-4.60034,2.35056-21.62977,9.29771-48.86055.43734a5.35606,5.35606,0,0,1-3.53441-3.62139C567.25876,214.75413,567.397,213.656,568.96,213.49573Z" transform="translate(-60.02816 -59.9088)" fill="#f6f8fb"/></svg>